<?xml version="1.0" encoding="UTF-8"?>
<svg xmlns="http://www.w3.org/2000/svg" viewBox="0 0 1600 900">
  <defs>
    <style>
      .cls-1 {
        fill: none;
        stroke: #fff;
        stroke-miterlimit: 10;
      }

      .cls-2 {
        mix-blend-mode: soft-light;
      }

      .cls-2, .cls-3 {
        opacity: .3;
      }

      .cls-4 {
        isolation: isolate;
      }

      .cls-5 {
        fill: #fff;
      }

      .cls-6 {
        opacity: .9;
      }

      .cls-7 {
        opacity: .8;
      }

      .cls-8 {
        opacity: .5;
      }
    </style>
  </defs>
  <g class="cls-4">
    <g id="Layer_6" data-name="Layer 6">
      <g class="cls-2">
        <g>
          <g>
            <path class="cls-1" d="M-26.74,926.27c-57.67-151.3-61-151.83-163.19-26.24,102.19-125.59,100.99-128.75-58.87-154.45,159.86,25.7,161.99,23.09,104.32-128.21,57.67,151.3,61,151.83,163.19,26.24-102.19,125.59-100.99,128.75,58.87,154.45-159.86-25.7-161.99-23.09-104.32,128.21Z"/>
            <path class="cls-1" d="M-3.55,782.06c-57.67-151.3-61-151.83-163.19-26.24,102.19-125.59,100.99-128.75-58.87-154.45,159.86,25.7,161.99,23.09,104.32-128.21,57.67,151.3,61,151.83,163.19,26.24-102.19,125.59-100.99,128.75,58.87,154.45-159.86-25.7-161.99-23.09-104.32,128.21Z"/>
            <path class="cls-1" d="M19.63,637.84c-57.67-151.3-61-151.83-163.19-26.24,102.19-125.59,100.99-128.75-58.87-154.45,159.86,25.7,161.99,23.09,104.32-128.21,57.67,151.3,61,151.83,163.19,26.24-102.19,125.59-100.99,128.75,58.87,154.45-159.86-25.7-161.99-23.09-104.32,128.21Z"/>
            <path class="cls-1" d="M42.82,493.63c-57.67-151.3-61-151.83-163.19-26.24,102.19-125.59,100.99-128.75-58.87-154.45,159.86,25.7,161.99,23.09,104.32-128.21,57.67,151.3,61,151.83,163.19,26.24-102.19,125.59-100.99,128.75,58.87,154.45-159.86-25.7-161.99-23.09-104.32,128.21Z"/>
            <path class="cls-1" d="M66.01,349.41C8.34,198.12,5,197.58-97.19,323.18,5,197.58,3.8,194.43-156.06,168.73,3.8,194.43,5.93,191.81-51.74,40.52,5.93,191.81,9.26,192.35,111.45,66.75,9.26,192.35,10.46,195.5,170.33,221.2,10.46,195.5,8.34,198.12,66.01,349.41Z"/>
            <path class="cls-1" d="M89.19,205.2C31.52,53.9,28.19,53.37-74,178.96,28.19,53.37,26.99,50.22-132.87,24.51,26.99,50.22,29.12,47.6-28.55-103.7,29.12,47.6,32.45,48.13,134.64-77.46,32.45,48.13,33.65,51.29,193.51,76.99,33.65,51.29,31.52,53.9,89.19,205.2Z"/>
            <path class="cls-1" d="M112.38,60.99C54.71-90.31,51.38-90.85-50.81,34.75,51.38-90.85,50.18-94-109.69-119.7,50.18-94,52.31-96.62-5.37-247.91c57.67,151.3,61,151.83,163.19,26.24C55.64-96.08,56.84-92.93,216.7-67.22,56.84-92.93,54.71-90.31,112.38,60.99Z"/>
            <path class="cls-1" d="M109.52,874.21c-57.67-151.3-61-151.83-163.19-26.24,102.19-125.59,100.99-128.75-58.87-154.45,159.86,25.7,161.99,23.09,104.32-128.21,57.67,151.3,61,151.83,163.19,26.24-102.19,125.59-100.99,128.75,58.87,154.45-159.86-25.7-161.99-23.09-104.32,128.21Z"/>
            <path class="cls-1" d="M132.7,729.99c-57.67-151.3-61-151.83-163.19-26.24,102.19-125.59,100.99-128.75-58.87-154.45,159.86,25.7,161.99,23.09,104.32-128.21,57.67,151.3,61,151.83,163.19,26.24-102.19,125.59-100.99,128.75,58.87,154.45-159.86-25.7-161.99-23.09-104.32,128.21Z"/>
            <path class="cls-1" d="M155.89,585.78c-57.67-151.3-61-151.83-163.19-26.24,102.19-125.59,100.99-128.75-58.87-154.45,159.86,25.7,161.99,23.09,104.32-128.21,57.67,151.3,61,151.83,163.19,26.24-102.19,125.59-100.99,128.75,58.87,154.45-159.86-25.7-161.99-23.09-104.32,128.21Z"/>
            <path class="cls-1" d="M179.08,441.57c-57.67-151.3-61-151.83-163.19-26.24,102.19-125.59,100.99-128.75-58.87-154.45,159.86,25.7,161.99,23.09,104.32-128.21,57.67,151.3,61,151.83,163.19,26.24-102.19,125.59-100.99,128.75,58.87,154.45-159.86-25.7-161.99-23.09-104.32,128.21Z"/>
            <path class="cls-1" d="M202.27,297.35c-57.67-151.3-61-151.83-163.19-26.24,102.19-125.59,100.99-128.75-58.87-154.45,159.86,25.7,161.99,23.09,104.32-128.21,57.67,151.3,61,151.83,163.19,26.24-102.19,125.59-100.99,128.75,58.87,154.45-159.86-25.7-161.99-23.09-104.32,128.21Z"/>
            <path class="cls-1" d="M225.45,153.14C167.78,1.84,164.45,1.3,62.26,126.9,164.45,1.3,163.25-1.85,3.38-27.55,163.25-1.85,165.38-4.46,107.7-155.76,165.38-4.46,168.71-3.93,270.9-129.52,168.71-3.93,169.91-.78,329.77,24.93,169.91-.78,167.78,1.84,225.45,153.14Z"/>
            <path class="cls-1" d="M248.64,8.92c-57.67-151.3-61-151.83-163.19-26.24,102.19-125.59,100.99-128.75-58.87-154.45,159.86,25.7,161.99,23.09,104.32-128.21,57.67,151.3,61,151.83,163.19,26.24-102.19,125.59-100.99,128.75,58.87,154.45-159.86-25.7-161.99-23.09-104.32,128.21Z"/>
            <path class="cls-1" d="M222.57,966.35c-57.67-151.3-61-151.83-163.19-26.24,102.19-125.59,100.99-128.75-58.87-154.45,159.86,25.7,161.99,23.09,104.32-128.21,57.67,151.3,61,151.83,163.19,26.24-102.19,125.59-100.99,128.75,58.87,154.45-159.86-25.7-161.99-23.09-104.32,128.21Z"/>
            <path class="cls-1" d="M245.75,822.14c-57.67-151.3-61-151.83-163.19-26.24,102.19-125.59,100.99-128.75-58.87-154.45,159.86,25.7,161.99,23.09,104.32-128.21,57.67,151.3,61,151.83,163.19,26.24-102.19,125.59-100.99,128.75,58.87,154.45-159.86-25.7-161.99-23.09-104.32,128.21Z"/>
            <path class="cls-1" d="M268.94,677.93c-57.67-151.3-61-151.83-163.19-26.24,102.19-125.59,100.99-128.75-58.87-154.45,159.86,25.7,161.99,23.09,104.32-128.21,57.67,151.3,61,151.83,163.19,26.24-102.19,125.59-100.99,128.75,58.87,154.45-159.86-25.7-161.99-23.09-104.32,128.21Z"/>
            <path class="cls-1" d="M292.13,533.71c-57.67-151.3-61-151.83-163.19-26.24,102.19-125.59,100.99-128.75-58.87-154.45,159.86,25.7,161.99,23.09,104.32-128.21,57.67,151.3,61,151.83,163.19,26.24-102.19,125.59-100.99,128.75,58.87,154.45-159.86-25.7-161.99-23.09-104.32,128.21Z"/>
            <path class="cls-1" d="M315.32,389.5c-57.67-151.3-61-151.83-163.19-26.24,102.19-125.59,100.99-128.75-58.87-154.45,159.86,25.7,161.99,23.09,104.32-128.21,57.67,151.3,61,151.83,163.19,26.24-102.19,125.59-100.99,128.75,58.87,154.45-159.86-25.7-161.99-23.09-104.32,128.21Z"/>
            <path class="cls-1" d="M338.5,245.28c-57.67-151.3-61-151.83-163.19-26.24,102.19-125.59,100.99-128.75-58.87-154.45,159.86,25.7,161.99,23.09,104.32-128.21,57.67,151.3,61,151.83,163.19,26.24-102.19,125.59-100.99,128.75,58.87,154.45-159.86-25.7-161.99-23.09-104.32,128.21Z"/>
            <path class="cls-1" d="M361.69,101.07c-57.67-151.3-61-151.83-163.19-26.24,102.19-125.59,100.99-128.75-58.87-154.45,159.86,25.7,161.99,23.09,104.32-128.21,57.67,151.3,61,151.83,163.19,26.24-102.19,125.59-100.99,128.75,58.87,154.45-159.86-25.7-161.99-23.09-104.32,128.21Z"/>
            <path class="cls-1" d="M358.83,914.29c-57.67-151.3-61-151.83-163.19-26.24,102.19-125.59,100.99-128.75-58.87-154.45,159.86,25.7,161.99,23.09,104.32-128.21,57.67,151.3,61,151.83,163.19,26.24-102.19,125.59-100.99,128.75,58.87,154.45-159.86-25.7-161.99-23.09-104.32,128.21Z"/>
            <path class="cls-1" d="M382.01,770.08c-57.67-151.3-61-151.83-163.19-26.24,102.19-125.59,100.99-128.75-58.87-154.45,159.86,25.7,161.99,23.09,104.32-128.21,57.67,151.3,61,151.83,163.19,26.24-102.19,125.59-100.99,128.75,58.87,154.45-159.86-25.7-161.99-23.09-104.32,128.21Z"/>
            <path class="cls-1" d="M405.2,625.86c-57.67-151.3-61-151.83-163.19-26.24,102.19-125.59,100.99-128.75-58.87-154.45,159.86,25.7,161.99,23.09,104.32-128.21,57.67,151.3,61,151.83,163.19,26.24-102.19,125.59-100.99,128.75,58.87,154.45-159.86-25.7-161.99-23.09-104.32,128.21Z"/>
            <path class="cls-1" d="M428.39,481.65c-57.67-151.3-61-151.83-163.19-26.24,102.19-125.59,100.99-128.75-58.87-154.45,159.86,25.7,161.99,23.09,104.32-128.21,57.67,151.3,61,151.83,163.19,26.24-102.19,125.59-100.99,128.75,58.87,154.45-159.86-25.7-161.99-23.09-104.32,128.21Z"/>
            <path class="cls-1" d="M451.57,337.43c-57.67-151.3-61-151.83-163.19-26.24,102.19-125.59,100.99-128.75-58.87-154.45,159.86,25.7,161.99,23.09,104.32-128.21,57.67,151.3,61,151.83,163.19,26.24-102.19,125.59-100.99,128.75,58.87,154.45-159.86-25.7-161.99-23.09-104.32,128.21Z"/>
            <path class="cls-1" d="M474.76,193.22c-57.67-151.3-61-151.83-163.19-26.24C413.76,41.39,412.56,38.24,252.69,12.53c159.86,25.7,161.99,23.09,104.32-128.21,57.67,151.3,61,151.83,163.19,26.24-102.19,125.59-100.99,128.75,58.87,154.45-159.86-25.7-161.99-23.09-104.32,128.21Z"/>
            <path class="cls-1" d="M497.95,49.01c-57.67-151.3-61-151.83-163.19-26.24,102.19-125.59,100.99-128.75-58.87-154.45,159.86,25.7,161.99,23.09,104.32-128.21,57.67,151.3,61,151.83,163.19,26.24-102.19,125.59-100.99,128.75,58.87,154.45-159.86-25.7-161.99-23.09-104.32,128.21Z"/>
            <path class="cls-1" d="M471.88,1006.44c-57.67-151.3-61-151.83-163.19-26.24,102.19-125.59,100.99-128.75-58.87-154.45,159.86,25.7,161.99,23.09,104.32-128.21,57.67,151.3,61,151.83,163.19,26.24-102.19,125.59-100.99,128.75,58.87,154.45-159.86-25.7-161.99-23.09-104.32,128.21Z"/>
            <path class="cls-1" d="M495.06,862.22c-57.67-151.3-61-151.83-163.19-26.24,102.19-125.59,100.99-128.75-58.87-154.45,159.86,25.7,161.99,23.09,104.32-128.21,57.67,151.3,61,151.83,163.19,26.24-102.19,125.59-100.99,128.75,58.87,154.45-159.86-25.7-161.99-23.09-104.32,128.21Z"/>
            <path class="cls-1" d="M518.25,718.01c-57.67-151.3-61-151.83-163.19-26.24,102.19-125.59,100.99-128.75-58.87-154.45,159.86,25.7,161.99,23.09,104.32-128.21,57.67,151.3,61,151.83,163.19,26.24-102.19,125.59-100.99,128.75,58.87,154.45-159.86-25.7-161.99-23.09-104.32,128.21Z"/>
            <path class="cls-1" d="M541.44,573.8c-57.67-151.3-61-151.83-163.19-26.24,102.19-125.59,100.99-128.75-58.87-154.45,159.86,25.7,161.99,23.09,104.32-128.21,57.67,151.3,61,151.83,163.19,26.24-102.19,125.59-100.99,128.75,58.87,154.45-159.86-25.7-161.99-23.09-104.32,128.21Z"/>
            <path class="cls-1" d="M564.62,429.58c-57.67-151.3-61-151.83-163.19-26.24,102.19-125.59,100.99-128.75-58.87-154.45,159.86,25.7,161.99,23.09,104.32-128.21,57.67,151.3,61,151.83,163.19,26.24-102.19,125.59-100.99,128.75,58.87,154.45-159.86-25.7-161.99-23.09-104.32,128.21Z"/>
            <path class="cls-1" d="M587.81,285.37c-57.67-151.3-61-151.83-163.19-26.24,102.19-125.59,100.99-128.75-58.87-154.45,159.86,25.7,161.99,23.09,104.32-128.21,57.67,151.3,61,151.83,163.19,26.24-102.19,125.59-100.99,128.75,58.87,154.45-159.86-25.7-161.99-23.09-104.32,128.21Z"/>
            <path class="cls-1" d="M611,141.15c-57.67-151.3-61-151.83-163.19-26.24,102.19-125.59,100.99-128.75-58.87-154.45,159.86,25.7,161.99,23.09,104.32-128.21,57.67,151.3,61,151.83,163.19,26.24C554.25-15.91,555.45-12.76,715.32,12.94c-159.86-25.7-161.99-23.09-104.32,128.21Z"/>
            <path class="cls-1" d="M608.13,954.38c-57.67-151.3-61-151.83-163.19-26.24,102.19-125.59,100.99-128.75-58.87-154.45,159.86,25.7,161.99,23.09,104.32-128.21,57.67,151.3,61,151.83,163.19,26.24-102.19,125.59-100.99,128.75,58.87,154.45-159.86-25.7-161.99-23.09-104.32,128.21Z"/>
            <path class="cls-1" d="M631.32,810.16c-57.67-151.3-61-151.83-163.19-26.24,102.19-125.59,100.99-128.75-58.87-154.45,159.86,25.7,161.99,23.09,104.32-128.21,57.67,151.3,61,151.83,163.19,26.24-102.19,125.59-100.99,128.75,58.87,154.45-159.86-25.7-161.99-23.09-104.32,128.21Z"/>
            <path class="cls-1" d="M654.51,665.95c-57.67-151.3-61-151.83-163.19-26.24,102.19-125.59,100.99-128.75-58.87-154.45,159.86,25.7,161.99,23.09,104.32-128.21,57.67,151.3,61,151.83,163.19,26.24-102.19,125.59-100.99,128.75,58.87,154.45-159.86-25.7-161.99-23.09-104.32,128.21Z"/>
            <path class="cls-1" d="M677.69,521.73c-57.67-151.3-61-151.83-163.19-26.24,102.19-125.59,100.99-128.75-58.87-154.45,159.86,25.7,161.99,23.09,104.32-128.21,57.67,151.3,61,151.83,163.19,26.24-102.19,125.59-100.99,128.75,58.87,154.45-159.86-25.7-161.99-23.09-104.32,128.21Z"/>
            <path class="cls-1" d="M700.88,377.52c-57.67-151.3-61-151.83-163.19-26.24,102.19-125.59,100.99-128.75-58.87-154.45,159.86,25.7,161.99,23.09,104.32-128.21,57.67,151.3,61,151.83,163.19,26.24-102.19,125.59-100.99,128.75,58.87,154.45-159.86-25.7-161.99-23.09-104.32,128.21Z"/>
            <path class="cls-1" d="M724.07,233.3c-57.67-151.3-61-151.83-163.19-26.24,102.19-125.59,100.99-128.75-58.87-154.45,159.86,25.7,161.99,23.09,104.32-128.21,57.67,151.3,61,151.83,163.19,26.24-102.19,125.59-100.99,128.75,58.87,154.45-159.86-25.7-161.99-23.09-104.32,128.21Z"/>
            <path class="cls-1" d="M747.26,89.09c-57.67-151.3-61-151.83-163.19-26.24,102.19-125.59,100.99-128.75-58.87-154.45,159.86,25.7,161.99,23.09,104.32-128.21,57.67,151.3,61,151.83,163.19,26.24-102.19,125.59-100.99,128.75,58.87,154.45-159.86-25.7-161.99-23.09-104.32,128.21Z"/>
            <path class="cls-1" d="M721.18,1046.52c-57.67-151.3-61-151.83-163.19-26.24,102.19-125.59,100.99-128.75-58.87-154.45,159.86,25.7,161.99,23.09,104.32-128.21,57.67,151.3,61,151.83,163.19,26.24-102.19,125.59-100.99,128.75,58.87,154.45-159.86-25.7-161.99-23.09-104.32,128.21Z"/>
            <path class="cls-1" d="M744.37,902.31c-57.67-151.3-61-151.83-163.19-26.24,102.19-125.59,100.99-128.75-58.87-154.45,159.86,25.7,161.99,23.09,104.32-128.21,57.67,151.3,61,151.83,163.19,26.24-102.19,125.59-100.99,128.75,58.87,154.45-159.86-25.7-161.99-23.09-104.32,128.21Z"/>
            <path class="cls-1" d="M767.56,758.09c-57.67-151.3-61-151.83-163.19-26.24,102.19-125.59,100.99-128.75-58.87-154.45,159.86,25.7,161.99,23.09,104.32-128.21,57.67,151.3,61,151.83,163.19,26.24-102.19,125.59-100.99,128.75,58.87,154.45-159.86-25.7-161.99-23.09-104.32,128.21Z"/>
            <path class="cls-1" d="M790.74,613.88c-57.67-151.3-61-151.83-163.19-26.24,102.19-125.59,100.99-128.75-58.87-154.45,159.86,25.7,161.99,23.09,104.32-128.21,57.67,151.3,61,151.83,163.19,26.24-102.19,125.59-100.99,128.75,58.87,154.45-159.86-25.7-161.99-23.09-104.32,128.21Z"/>
            <path class="cls-1" d="M813.93,469.67c-57.67-151.3-61-151.83-163.19-26.24,102.19-125.59,100.99-128.75-58.87-154.45,159.86,25.7,161.99,23.09,104.32-128.21,57.67,151.3,61,151.83,163.19,26.24-102.19,125.59-100.99,128.75,58.87,154.45-159.86-25.7-161.99-23.09-104.32,128.21Z"/>
            <path class="cls-1" d="M837.12,325.45c-57.67-151.3-61-151.83-163.19-26.24,102.19-125.59,100.99-128.75-58.87-154.45,159.86,25.7,161.99,23.09,104.32-128.21,57.67,151.3,61,151.83,163.19,26.24-102.19,125.59-100.99,128.75,58.87,154.45-159.86-25.7-161.99-23.09-104.32,128.21Z"/>
            <path class="cls-1" d="M860.31,181.24c-57.67-151.3-61-151.83-163.19-26.24C799.3,29.41,798.1,26.25,638.24.55c159.86,25.7,161.99,23.09,104.32-128.21,57.67,151.3,61,151.83,163.19,26.24-102.19,125.59-100.99,128.75,58.87,154.45-159.86-25.7-161.99-23.09-104.32,128.21Z"/>
            <path class="cls-1" d="M857.44,994.46c-57.67-151.3-61-151.83-163.19-26.24,102.19-125.59,100.99-128.75-58.87-154.45,159.86,25.7,161.99,23.09,104.32-128.21,57.67,151.3,61,151.83,163.19,26.24-102.19,125.59-100.99,128.75,58.87,154.45-159.86-25.7-161.99-23.09-104.32,128.21Z"/>
            <path class="cls-1" d="M880.63,850.25c-57.67-151.3-61-151.83-163.19-26.24,102.19-125.59,100.99-128.75-58.87-154.45,159.86,25.7,161.99,23.09,104.32-128.21,57.67,151.3,61,151.83,163.19,26.24-102.19,125.59-100.99,128.75,58.87,154.45-159.86-25.7-161.99-23.09-104.32,128.21Z"/>
            <path class="cls-1" d="M903.82,706.03c-57.67-151.3-61-151.83-163.19-26.24,102.19-125.59,100.99-128.75-58.87-154.45,159.86,25.7,161.99,23.09,104.32-128.21,57.67,151.3,61,151.83,163.19,26.24-102.19,125.59-100.99,128.75,58.87,154.45-159.86-25.7-161.99-23.09-104.32,128.21Z"/>
            <path class="cls-1" d="M927,561.82c-57.67-151.3-61-151.83-163.19-26.24,102.19-125.59,100.99-128.75-58.87-154.45,159.86,25.7,161.99,23.09,104.32-128.21,57.67,151.3,61,151.83,163.19,26.24-102.19,125.59-100.99,128.75,58.87,154.45-159.86-25.7-161.99-23.09-104.32,128.21Z"/>
            <path class="cls-1" d="M950.19,417.6c-57.67-151.3-61-151.83-163.19-26.24,102.19-125.59,100.99-128.75-58.87-154.45,159.86,25.7,161.99,23.09,104.32-128.21,57.67,151.3,61,151.83,163.19,26.24-102.19,125.59-100.99,128.75,58.87,154.45-159.86-25.7-161.99-23.09-104.32,128.21Z"/>
            <path class="cls-1" d="M973.38,273.39c-57.67-151.3-61-151.83-163.19-26.24,102.19-125.59,100.99-128.75-58.87-154.45,159.86,25.7,161.99,23.09,104.32-128.21,57.67,151.3,61,151.83,163.19,26.24-102.19,125.59-100.99,128.75,58.87,154.45-159.86-25.7-161.99-23.09-104.32,128.21Z"/>
            <path class="cls-1" d="M996.56,129.17c-57.67-151.3-61-151.83-163.19-26.24,102.19-125.59,100.99-128.75-58.87-154.45,159.86,25.7,161.99,23.09,104.32-128.21,57.67,151.3,61,151.83,163.19,26.24C939.82-27.89,941.02-24.74,1100.88.96c-159.86-25.7-161.99-23.09-104.32,128.21Z"/>
            <path class="cls-1" d="M970.49,1086.61c-57.67-151.3-61-151.83-163.19-26.24,102.19-125.59,100.99-128.75-58.87-154.45,159.86,25.7,161.99,23.09,104.32-128.21,57.67,151.3,61,151.83,163.19,26.24-102.19,125.59-100.99,128.75,58.87,154.45-159.86-25.7-161.99-23.09-104.32,128.21Z"/>
            <path class="cls-1" d="M993.68,942.39c-57.67-151.3-61-151.83-163.19-26.24,102.19-125.59,100.99-128.75-58.87-154.45,159.86,25.7,161.99,23.09,104.32-128.21,57.67,151.3,61,151.83,163.19,26.24-102.19,125.59-100.99,128.75,58.87,154.45-159.86-25.7-161.99-23.09-104.32,128.21Z"/>
            <path class="cls-1" d="M1016.87,798.18c-57.67-151.3-61-151.83-163.19-26.24,102.19-125.59,100.99-128.75-58.87-154.45,159.86,25.7,161.99,23.09,104.32-128.21,57.67,151.3,61,151.83,163.19,26.24-102.19,125.59-100.99,128.75,58.87,154.45-159.86-25.7-161.99-23.09-104.32,128.21Z"/>
            <path class="cls-1" d="M1040.05,653.96c-57.67-151.3-61-151.83-163.19-26.24,102.19-125.59,100.99-128.75-58.87-154.45,159.86,25.7,161.99,23.09,104.32-128.21,57.67,151.3,61,151.83,163.19,26.24-102.19,125.59-100.99,128.75,58.87,154.45-159.86-25.7-161.99-23.09-104.32,128.21Z"/>
            <path class="cls-1" d="M1063.24,509.75c-57.67-151.3-61-151.83-163.19-26.24,102.19-125.59,100.99-128.75-58.87-154.45,159.86,25.7,161.99,23.09,104.32-128.21,57.67,151.3,61,151.83,163.19,26.24-102.19,125.59-100.99,128.75,58.87,154.45-159.86-25.7-161.99-23.09-104.32,128.21Z"/>
            <path class="cls-1" d="M1086.43,365.54c-57.67-151.3-61-151.83-163.19-26.24,102.19-125.59,100.99-128.75-58.87-154.45,159.86,25.7,161.99,23.09,104.32-128.21,57.67,151.3,61,151.83,163.19,26.24-102.19,125.59-100.99,128.75,58.87,154.45-159.86-25.7-161.99-23.09-104.32,128.21Z"/>
            <path class="cls-1" d="M1109.61,221.32c-57.67-151.3-61-151.83-163.19-26.24,102.19-125.59,100.99-128.75-58.87-154.45,159.86,25.7,161.99,23.09,104.32-128.21,57.67,151.3,61,151.83,163.19,26.24-102.19,125.59-100.99,128.75,58.87,154.45-159.86-25.7-161.99-23.09-104.32,128.21Z"/>
            <path class="cls-1" d="M1106.75,1034.54c-57.67-151.3-61-151.83-163.19-26.24,102.19-125.59,100.99-128.75-58.87-154.45,159.86,25.7,161.99,23.09,104.32-128.21,57.67,151.3,61,151.83,163.19,26.24-102.19,125.59-100.99,128.75,58.87,154.45-159.86-25.7-161.99-23.09-104.32,128.21Z"/>
            <path class="cls-1" d="M1129.94,890.33c-57.67-151.3-61-151.83-163.19-26.24,102.19-125.59,100.99-128.75-58.87-154.45,159.86,25.7,161.99,23.09,104.32-128.21,57.67,151.3,61,151.83,163.19,26.24-102.19,125.59-100.99,128.75,58.87,154.45-159.86-25.7-161.99-23.09-104.32,128.21Z"/>
            <path class="cls-1" d="M1153.12,746.12c-57.67-151.3-61-151.83-163.19-26.24,102.19-125.59,100.99-128.75-58.87-154.45,159.86,25.7,161.99,23.09,104.32-128.21,57.67,151.3,61,151.83,163.19,26.24-102.19,125.59-100.99,128.75,58.87,154.45-159.86-25.7-161.99-23.09-104.32,128.21Z"/>
            <path class="cls-1" d="M1176.31,601.9c-57.67-151.3-61-151.83-163.19-26.24,102.19-125.59,100.99-128.75-58.87-154.45,159.86,25.7,161.99,23.09,104.32-128.21,57.67,151.3,61,151.83,163.19,26.24-102.19,125.59-100.99,128.75,58.87,154.45-159.86-25.7-161.99-23.09-104.32,128.21Z"/>
            <path class="cls-1" d="M1199.5,457.69c-57.67-151.3-61-151.83-163.19-26.24,102.19-125.59,100.99-128.75-58.87-154.45,159.86,25.7,161.99,23.09,104.32-128.21,57.67,151.3,61,151.83,163.19,26.24-102.19,125.59-100.99,128.75,58.87,154.45-159.86-25.7-161.99-23.09-104.32,128.21Z"/>
            <path class="cls-1" d="M1222.68,313.47c-57.67-151.3-61-151.83-163.19-26.24,102.19-125.59,100.99-128.75-58.87-154.45,159.86,25.7,161.99,23.09,104.32-128.21,57.67,151.3,61,151.83,163.19,26.24-102.19,125.59-100.99,128.75,58.87,154.45-159.86-25.7-161.99-23.09-104.32,128.21Z"/>
            <path class="cls-1" d="M1245.87,169.26c-57.67-151.3-61-151.83-163.19-26.24,102.19-125.59,100.99-128.75-58.87-154.45,159.86,25.7,161.99,23.09,104.32-128.21,57.67,151.3,61,151.83,163.19,26.24-102.19,125.59-100.99,128.75,58.87,154.45-159.86-25.7-161.99-23.09-104.32,128.21Z"/>
            <path class="cls-1" d="M1219.8,1126.69c-57.67-151.3-61-151.83-163.19-26.24,102.19-125.59,100.99-128.75-58.87-154.45,159.86,25.7,161.99,23.09,104.32-128.21,57.67,151.3,61,151.83,163.19,26.24-102.19,125.59-100.99,128.75,58.87,154.45-159.86-25.7-161.99-23.09-104.32,128.21Z"/>
            <path class="cls-1" d="M1242.99,982.48c-57.67-151.3-61-151.83-163.19-26.24,102.19-125.59,100.99-128.75-58.87-154.45,159.86,25.7,161.99,23.09,104.32-128.21,57.67,151.3,61,151.83,163.19,26.24-102.19,125.59-100.99,128.75,58.87,154.45-159.86-25.7-161.99-23.09-104.32,128.21Z"/>
            <path class="cls-1" d="M1266.17,838.26c-57.67-151.3-61-151.83-163.19-26.24,102.19-125.59,100.99-128.75-58.87-154.45,159.86,25.7,161.99,23.09,104.32-128.21,57.67,151.3,61,151.83,163.19,26.24-102.19,125.59-100.99,128.75,58.87,154.45-159.86-25.7-161.99-23.09-104.32,128.21Z"/>
            <path class="cls-1" d="M1289.36,694.05c-57.67-151.3-61-151.83-163.19-26.24,102.19-125.59,100.99-128.75-58.87-154.45,159.86,25.7,161.99,23.09,104.32-128.21,57.67,151.3,61,151.83,163.19,26.24-102.19,125.59-100.99,128.75,58.87,154.45-159.86-25.7-161.99-23.09-104.32,128.21Z"/>
            <path class="cls-1" d="M1312.55,549.83c-57.67-151.3-61-151.83-163.19-26.24,102.19-125.59,100.99-128.75-58.87-154.45,159.86,25.7,161.99,23.09,104.32-128.21,57.67,151.3,61,151.83,163.19,26.24-102.19,125.59-100.99,128.75,58.87,154.45-159.86-25.7-161.99-23.09-104.32,128.21Z"/>
            <path class="cls-1" d="M1335.73,405.62c-57.67-151.3-61-151.83-163.19-26.24,102.19-125.59,100.99-128.75-58.87-154.45,159.86,25.7,161.99,23.09,104.32-128.21,57.67,151.3,61,151.83,163.19,26.24-102.19,125.59-100.99,128.75,58.87,154.45-159.86-25.7-161.99-23.09-104.32,128.21Z"/>
            <path class="cls-1" d="M1358.92,261.41c-57.67-151.3-61-151.83-163.19-26.24,102.19-125.59,100.99-128.75-58.87-154.45,159.86,25.7,161.99,23.09,104.32-128.21,57.67,151.3,61,151.83,163.19,26.24-102.19,125.59-100.99,128.75,58.87,154.45-159.86-25.7-161.99-23.09-104.32,128.21Z"/>
            <path class="cls-1" d="M1356.06,1074.63c-57.67-151.3-61-151.83-163.19-26.24,102.19-125.59,100.99-128.75-58.87-154.45,159.86,25.7,161.99,23.09,104.32-128.21,57.67,151.3,61,151.83,163.19,26.24-102.19,125.59-100.99,128.75,58.87,154.45-159.86-25.7-161.99-23.09-104.32,128.21Z"/>
            <path class="cls-1" d="M1379.25,930.41c-57.67-151.3-61-151.83-163.19-26.24,102.19-125.59,100.99-128.75-58.87-154.45,159.86,25.7,161.99,23.09,104.32-128.21,57.67,151.3,61,151.83,163.19,26.24-102.19,125.59-100.99,128.75,58.87,154.45-159.86-25.7-161.99-23.09-104.32,128.21Z"/>
            <path class="cls-1" d="M1402.43,786.2c-57.67-151.3-61-151.83-163.19-26.24,102.19-125.59,100.99-128.75-58.87-154.45,159.86,25.7,161.99,23.09,104.32-128.21,57.67,151.3,61,151.83,163.19,26.24-102.19,125.59-100.99,128.75,58.87,154.45-159.86-25.7-161.99-23.09-104.32,128.21Z"/>
            <path class="cls-1" d="M1425.62,641.98c-57.67-151.3-61-151.83-163.19-26.24,102.19-125.59,100.99-128.75-58.87-154.45,159.86,25.7,161.99,23.09,104.32-128.21,57.67,151.3,61,151.83,163.19,26.24-102.19,125.59-100.99,128.75,58.87,154.45-159.86-25.7-161.99-23.09-104.32,128.21Z"/>
            <path class="cls-1" d="M1448.81,497.77c-57.67-151.3-61-151.83-163.19-26.24,102.19-125.59,100.99-128.75-58.87-154.45,159.86,25.7,161.99,23.09,104.32-128.21,57.67,151.3,61,151.83,163.19,26.24-102.19,125.59-100.99,128.75,58.87,154.45-159.86-25.7-161.99-23.09-104.32,128.21Z"/>
            <path class="cls-1" d="M1471.99,353.56c-57.67-151.3-61-151.83-163.19-26.24,102.19-125.59,100.99-128.75-58.87-154.45,159.86,25.7,161.99,23.09,104.32-128.21,57.67,151.3,61,151.83,163.19,26.24-102.19,125.59-100.99,128.75,58.87,154.45-159.86-25.7-161.99-23.09-104.32,128.21Z"/>
            <path class="cls-1" d="M1495.18,209.34c-57.67-151.3-61-151.83-163.19-26.24,102.19-125.59,100.99-128.75-58.87-154.45,159.86,25.7,161.99,23.09,104.32-128.21,57.67,151.3,61,151.83,163.19,26.24-102.19,125.59-100.99,128.75,58.87,154.45-159.86-25.7-161.99-23.09-104.32,128.21Z"/>
            <path class="cls-1" d="M1469.11,1166.77c-57.67-151.3-61-151.83-163.19-26.24,102.19-125.59,100.99-128.75-58.87-154.45,159.86,25.7,161.99,23.09,104.32-128.21,57.67,151.3,61,151.83,163.19,26.24-102.19,125.59-100.99,128.75,58.87,154.45-159.86-25.7-161.99-23.09-104.32,128.21Z"/>
            <path class="cls-1" d="M1492.3,1022.56c-57.67-151.3-61-151.83-163.19-26.24,102.19-125.59,100.99-128.75-58.87-154.45,159.86,25.7,161.99,23.09,104.32-128.21,57.67,151.3,61,151.83,163.19,26.24-102.19,125.59-100.99,128.75,58.87,154.45-159.86-25.7-161.99-23.09-104.32,128.21Z"/>
            <path class="cls-1" d="M1515.48,878.35c-57.67-151.3-61-151.83-163.19-26.24,102.19-125.59,100.99-128.75-58.87-154.45,159.86,25.7,161.99,23.09,104.32-128.21,57.67,151.3,61,151.83,163.19,26.24-102.19,125.59-100.99,128.75,58.87,154.45-159.86-25.7-161.99-23.09-104.32,128.21Z"/>
            <path class="cls-1" d="M1538.67,734.13c-57.67-151.3-61-151.83-163.19-26.24,102.19-125.59,100.99-128.75-58.87-154.45,159.86,25.7,161.99,23.09,104.32-128.21,57.67,151.3,61,151.83,163.19,26.24-102.19,125.59-100.99,128.75,58.87,154.45-159.86-25.7-161.99-23.09-104.32,128.21Z"/>
            <path class="cls-1" d="M1561.86,589.92c-57.67-151.3-61-151.83-163.19-26.24,102.19-125.59,100.99-128.75-58.87-154.45,159.86,25.7,161.99,23.09,104.32-128.21,57.67,151.3,61,151.83,163.19,26.24-102.19,125.59-100.99,128.75,58.87,154.45-159.86-25.7-161.99-23.09-104.32,128.21Z"/>
            <path class="cls-1" d="M1585.04,445.7c-57.67-151.3-61-151.83-163.19-26.24,102.19-125.59,100.99-128.75-58.87-154.45,159.86,25.7,161.99,23.09,104.32-128.21,57.67,151.3,61,151.83,163.19,26.24-102.19,125.59-100.99,128.75,58.87,154.45-159.86-25.7-161.99-23.09-104.32,128.21Z"/>
            <path class="cls-1" d="M1608.23,301.49c-57.67-151.3-61-151.83-163.19-26.24,102.19-125.59,100.99-128.75-58.87-154.45,159.86,25.7,161.99,23.09,104.32-128.21,57.67,151.3,61,151.83,163.19,26.24-102.19,125.59-100.99,128.75,58.87,154.45-159.86-25.7-161.99-23.09-104.32,128.21Z"/>
            <path class="cls-1" d="M1605.37,1114.71c-57.67-151.3-61-151.83-163.19-26.24,102.19-125.59,100.99-128.75-58.87-154.45,159.86,25.7,161.99,23.09,104.32-128.21,57.67,151.3,61,151.83,163.19,26.24-102.19,125.59-100.99,128.75,58.87,154.45-159.86-25.7-161.99-23.09-104.32,128.21Z"/>
            <path class="cls-1" d="M1628.55,970.5c-57.67-151.3-61-151.83-163.19-26.24,102.19-125.59,100.99-128.75-58.87-154.45,159.86,25.7,161.99,23.09,104.32-128.21,57.67,151.3,61,151.83,163.19,26.24-102.19,125.59-100.99,128.75,58.87,154.45-159.86-25.7-161.99-23.09-104.32,128.21Z"/>
            <path class="cls-1" d="M1651.74,826.28c-57.67-151.3-61-151.83-163.19-26.24,102.19-125.59,100.99-128.75-58.87-154.45,159.86,25.7,161.99,23.09,104.32-128.21,57.67,151.3,61,151.83,163.19,26.24-102.19,125.59-100.99,128.75,58.87,154.45-159.86-25.7-161.99-23.09-104.32,128.21Z"/>
            <path class="cls-1" d="M1674.93,682.07c-57.67-151.3-61-151.83-163.19-26.24,102.19-125.59,100.99-128.75-58.87-154.45,159.86,25.7,161.99,23.09,104.32-128.21,57.67,151.3,61,151.83,163.19,26.24-102.19,125.59-100.99,128.75,58.87,154.45-159.86-25.7-161.99-23.09-104.32,128.21Z"/>
            <path class="cls-1" d="M1698.11,537.85c-57.67-151.3-61-151.83-163.19-26.24,102.19-125.59,100.99-128.75-58.87-154.45,159.86,25.7,161.99,23.09,104.32-128.21,57.67,151.3,61,151.83,163.19,26.24-102.19,125.59-100.99,128.75,58.87,154.45-159.86-25.7-161.99-23.09-104.32,128.21Z"/>
            <path class="cls-1" d="M1721.3,393.64c-57.67-151.3-61-151.83-163.19-26.24,102.19-125.59,100.99-128.75-58.87-154.45,159.86,25.7,161.99,23.09,104.32-128.21,57.67,151.3,61,151.83,163.19,26.24-102.19,125.59-100.99,128.75,58.87,154.45-159.86-25.7-161.99-23.09-104.32,128.21Z"/>
            <path class="cls-1" d="M1744.49,249.43c-57.67-151.3-61-151.83-163.19-26.24,102.19-125.59,100.99-128.75-58.87-154.45,159.86,25.7,161.99,23.09,104.32-128.21,57.67,151.3,61,151.83,163.19,26.24-102.19,125.59-100.99,128.75,58.87,154.45-159.86-25.7-161.99-23.09-104.32,128.21Z"/>
          </g>
          <g class="cls-3">
            <g class="cls-6">
              <path class="cls-5" d="M-26.74,926.27c-57.67-151.3-61-151.83-163.19-26.24,102.19-125.59,100.99-128.75-58.87-154.45,159.86,25.7,161.99,23.09,104.32-128.21,57.67,151.3,61,151.83,163.19,26.24-102.19,125.59-100.99,128.75,58.87,154.45-159.86-25.7-161.99-23.09-104.32,128.21Z"/>
            </g>
            <path class="cls-5" d="M-3.55,782.06c-57.67-151.3-61-151.83-163.19-26.24,102.19-125.59,100.99-128.75-58.87-154.45,159.86,25.7,161.99,23.09,104.32-128.21,57.67,151.3,61,151.83,163.19,26.24-102.19,125.59-100.99,128.75,58.87,154.45-159.86-25.7-161.99-23.09-104.32,128.21Z"/>
            <g class="cls-8">
              <path class="cls-5" d="M19.63,637.84c-57.67-151.3-61-151.83-163.19-26.24,102.19-125.59,100.99-128.75-58.87-154.45,159.86,25.7,161.99,23.09,104.32-128.21,57.67,151.3,61,151.83,163.19,26.24-102.19,125.59-100.99,128.75,58.87,154.45-159.86-25.7-161.99-23.09-104.32,128.21Z"/>
            </g>
            <path class="cls-5" d="M42.82,493.63c-57.67-151.3-61-151.83-163.19-26.24,102.19-125.59,100.99-128.75-58.87-154.45,159.86,25.7,161.99,23.09,104.32-128.21,57.67,151.3,61,151.83,163.19,26.24-102.19,125.59-100.99,128.75,58.87,154.45-159.86-25.7-161.99-23.09-104.32,128.21Z"/>
            <g class="cls-6">
              <path class="cls-5" d="M66.01,349.41C8.34,198.12,5,197.58-97.19,323.18,5,197.58,3.8,194.43-156.06,168.73,3.8,194.43,5.93,191.81-51.74,40.52,5.93,191.81,9.26,192.35,111.45,66.75,9.26,192.35,10.46,195.5,170.33,221.2,10.46,195.5,8.34,198.12,66.01,349.41Z"/>
            </g>
            <g class="cls-8">
              <path class="cls-5" d="M89.19,205.2C31.52,53.9,28.19,53.37-74,178.96,28.19,53.37,26.99,50.22-132.87,24.51,26.99,50.22,29.12,47.6-28.55-103.7,29.12,47.6,32.45,48.13,134.64-77.46,32.45,48.13,33.65,51.29,193.51,76.99,33.65,51.29,31.52,53.9,89.19,205.2Z"/>
            </g>
            <path class="cls-5" d="M112.38,60.99C54.71-90.31,51.38-90.85-50.81,34.75,51.38-90.85,50.18-94-109.69-119.7,50.18-94,52.31-96.62-5.37-247.91c57.67,151.3,61,151.83,163.19,26.24C55.64-96.08,56.84-92.93,216.7-67.22,56.84-92.93,54.71-90.31,112.38,60.99Z"/>
            <g class="cls-8">
              <path class="cls-5" d="M109.52,874.21c-57.67-151.3-61-151.83-163.19-26.24,102.19-125.59,100.99-128.75-58.87-154.45,159.86,25.7,161.99,23.09,104.32-128.21,57.67,151.3,61,151.83,163.19,26.24-102.19,125.59-100.99,128.75,58.87,154.45-159.86-25.7-161.99-23.09-104.32,128.21Z"/>
            </g>
            <path class="cls-5" d="M132.7,729.99c-57.67-151.3-61-151.83-163.19-26.24,102.19-125.59,100.99-128.75-58.87-154.45,159.86,25.7,161.99,23.09,104.32-128.21,57.67,151.3,61,151.83,163.19,26.24-102.19,125.59-100.99,128.75,58.87,154.45-159.86-25.7-161.99-23.09-104.32,128.21Z"/>
            <path class="cls-5" d="M155.89,585.78c-57.67-151.3-61-151.83-163.19-26.24,102.19-125.59,100.99-128.75-58.87-154.45,159.86,25.7,161.99,23.09,104.32-128.21,57.67,151.3,61,151.83,163.19,26.24-102.19,125.59-100.99,128.75,58.87,154.45-159.86-25.7-161.99-23.09-104.32,128.21Z"/>
            <g class="cls-8">
              <path class="cls-5" d="M179.08,441.57c-57.67-151.3-61-151.83-163.19-26.24,102.19-125.59,100.99-128.75-58.87-154.45,159.86,25.7,161.99,23.09,104.32-128.21,57.67,151.3,61,151.83,163.19,26.24-102.19,125.59-100.99,128.75,58.87,154.45-159.86-25.7-161.99-23.09-104.32,128.21Z"/>
            </g>
            <path class="cls-5" d="M202.27,297.35c-57.67-151.3-61-151.83-163.19-26.24,102.19-125.59,100.99-128.75-58.87-154.45,159.86,25.7,161.99,23.09,104.32-128.21,57.67,151.3,61,151.83,163.19,26.24-102.19,125.59-100.99,128.75,58.87,154.45-159.86-25.7-161.99-23.09-104.32,128.21Z"/>
            <g class="cls-7">
              <path class="cls-5" d="M225.45,153.14C167.78,1.84,164.45,1.3,62.26,126.9,164.45,1.3,163.25-1.85,3.38-27.55,163.25-1.85,165.38-4.46,107.7-155.76,165.38-4.46,168.71-3.93,270.9-129.52,168.71-3.93,169.91-.78,329.77,24.93,169.91-.78,167.78,1.84,225.45,153.14Z"/>
            </g>
            <path class="cls-5" d="M248.64,8.92c-57.67-151.3-61-151.83-163.19-26.24,102.19-125.59,100.99-128.75-58.87-154.45,159.86,25.7,161.99,23.09,104.32-128.21,57.67,151.3,61,151.83,163.19,26.24-102.19,125.59-100.99,128.75,58.87,154.45-159.86-25.7-161.99-23.09-104.32,128.21Z"/>
            <path class="cls-5" d="M222.57,966.35c-57.67-151.3-61-151.83-163.19-26.24,102.19-125.59,100.99-128.75-58.87-154.45,159.86,25.7,161.99,23.09,104.32-128.21,57.67,151.3,61,151.83,163.19,26.24-102.19,125.59-100.99,128.75,58.87,154.45-159.86-25.7-161.99-23.09-104.32,128.21Z"/>
            <path class="cls-5" d="M245.75,822.14c-57.67-151.3-61-151.83-163.19-26.24,102.19-125.59,100.99-128.75-58.87-154.45,159.86,25.7,161.99,23.09,104.32-128.21,57.67,151.3,61,151.83,163.19,26.24-102.19,125.59-100.99,128.75,58.87,154.45-159.86-25.7-161.99-23.09-104.32,128.21Z"/>
            <g class="cls-7">
              <path class="cls-5" d="M268.94,677.93c-57.67-151.3-61-151.83-163.19-26.24,102.19-125.59,100.99-128.75-58.87-154.45,159.86,25.7,161.99,23.09,104.32-128.21,57.67,151.3,61,151.83,163.19,26.24-102.19,125.59-100.99,128.75,58.87,154.45-159.86-25.7-161.99-23.09-104.32,128.21Z"/>
            </g>
            <path class="cls-5" d="M292.13,533.71c-57.67-151.3-61-151.83-163.19-26.24,102.19-125.59,100.99-128.75-58.87-154.45,159.86,25.7,161.99,23.09,104.32-128.21,57.67,151.3,61,151.83,163.19,26.24-102.19,125.59-100.99,128.75,58.87,154.45-159.86-25.7-161.99-23.09-104.32,128.21Z"/>
            <g class="cls-6">
              <path class="cls-5" d="M315.32,389.5c-57.67-151.3-61-151.83-163.19-26.24,102.19-125.59,100.99-128.75-58.87-154.45,159.86,25.7,161.99,23.09,104.32-128.21,57.67,151.3,61,151.83,163.19,26.24-102.19,125.59-100.99,128.75,58.87,154.45-159.86-25.7-161.99-23.09-104.32,128.21Z"/>
            </g>
            <path class="cls-5" d="M338.5,245.28c-57.67-151.3-61-151.83-163.19-26.24,102.19-125.59,100.99-128.75-58.87-154.45,159.86,25.7,161.99,23.09,104.32-128.21,57.67,151.3,61,151.83,163.19,26.24-102.19,125.59-100.99,128.75,58.87,154.45-159.86-25.7-161.99-23.09-104.32,128.21Z"/>
            <path class="cls-5" d="M361.69,101.07c-57.67-151.3-61-151.83-163.19-26.24,102.19-125.59,100.99-128.75-58.87-154.45,159.86,25.7,161.99,23.09,104.32-128.21,57.67,151.3,61,151.83,163.19,26.24-102.19,125.59-100.99,128.75,58.87,154.45-159.86-25.7-161.99-23.09-104.32,128.21Z"/>
            <g class="cls-6">
              <path class="cls-5" d="M358.83,914.29c-57.67-151.3-61-151.83-163.19-26.24,102.19-125.59,100.99-128.75-58.87-154.45,159.86,25.7,161.99,23.09,104.32-128.21,57.67,151.3,61,151.83,163.19,26.24-102.19,125.59-100.99,128.75,58.87,154.45-159.86-25.7-161.99-23.09-104.32,128.21Z"/>
            </g>
            <g class="cls-8">
              <path class="cls-5" d="M382.01,770.08c-57.67-151.3-61-151.83-163.19-26.24,102.19-125.59,100.99-128.75-58.87-154.45,159.86,25.7,161.99,23.09,104.32-128.21,57.67,151.3,61,151.83,163.19,26.24-102.19,125.59-100.99,128.75,58.87,154.45-159.86-25.7-161.99-23.09-104.32,128.21Z"/>
            </g>
            <g class="cls-6">
              <path class="cls-5" d="M405.2,625.86c-57.67-151.3-61-151.83-163.19-26.24,102.19-125.59,100.99-128.75-58.87-154.45,159.86,25.7,161.99,23.09,104.32-128.21,57.67,151.3,61,151.83,163.19,26.24-102.19,125.59-100.99,128.75,58.87,154.45-159.86-25.7-161.99-23.09-104.32,128.21Z"/>
            </g>
            <g class="cls-7">
              <path class="cls-5" d="M428.39,481.65c-57.67-151.3-61-151.83-163.19-26.24,102.19-125.59,100.99-128.75-58.87-154.45,159.86,25.7,161.99,23.09,104.32-128.21,57.67,151.3,61,151.83,163.19,26.24-102.19,125.59-100.99,128.75,58.87,154.45-159.86-25.7-161.99-23.09-104.32,128.21Z"/>
            </g>
            <g class="cls-8">
              <path class="cls-5" d="M451.57,337.43c-57.67-151.3-61-151.83-163.19-26.24,102.19-125.59,100.99-128.75-58.87-154.45,159.86,25.7,161.99,23.09,104.32-128.21,57.67,151.3,61,151.83,163.19,26.24-102.19,125.59-100.99,128.75,58.87,154.45-159.86-25.7-161.99-23.09-104.32,128.21Z"/>
            </g>
            <g class="cls-6">
              <path class="cls-5" d="M474.76,193.22c-57.67-151.3-61-151.83-163.19-26.24C413.76,41.39,412.56,38.24,252.69,12.53c159.86,25.7,161.99,23.09,104.32-128.21,57.67,151.3,61,151.83,163.19,26.24-102.19,125.59-100.99,128.75,58.87,154.45-159.86-25.7-161.99-23.09-104.32,128.21Z"/>
            </g>
            <path class="cls-5" d="M497.95,49.01c-57.67-151.3-61-151.83-163.19-26.24,102.19-125.59,100.99-128.75-58.87-154.45,159.86,25.7,161.99,23.09,104.32-128.21,57.67,151.3,61,151.83,163.19,26.24-102.19,125.59-100.99,128.75,58.87,154.45-159.86-25.7-161.99-23.09-104.32,128.21Z"/>
            <path class="cls-5" d="M471.88,1006.44c-57.67-151.3-61-151.83-163.19-26.24,102.19-125.59,100.99-128.75-58.87-154.45,159.86,25.7,161.99,23.09,104.32-128.21,57.67,151.3,61,151.83,163.19,26.24-102.19,125.59-100.99,128.75,58.87,154.45-159.86-25.7-161.99-23.09-104.32,128.21Z"/>
            <g class="cls-8">
              <path class="cls-5" d="M495.06,862.22c-57.67-151.3-61-151.83-163.19-26.24,102.19-125.59,100.99-128.75-58.87-154.45,159.86,25.7,161.99,23.09,104.32-128.21,57.67,151.3,61,151.83,163.19,26.24-102.19,125.59-100.99,128.75,58.87,154.45-159.86-25.7-161.99-23.09-104.32,128.21Z"/>
            </g>
            <path class="cls-5" d="M518.25,718.01c-57.67-151.3-61-151.83-163.19-26.24,102.19-125.59,100.99-128.75-58.87-154.45,159.86,25.7,161.99,23.09,104.32-128.21,57.67,151.3,61,151.83,163.19,26.24-102.19,125.59-100.99,128.75,58.87,154.45-159.86-25.7-161.99-23.09-104.32,128.21Z"/>
            <path class="cls-5" d="M541.44,573.8c-57.67-151.3-61-151.83-163.19-26.24,102.19-125.59,100.99-128.75-58.87-154.45,159.86,25.7,161.99,23.09,104.32-128.21,57.67,151.3,61,151.83,163.19,26.24-102.19,125.59-100.99,128.75,58.87,154.45-159.86-25.7-161.99-23.09-104.32,128.21Z"/>
            <path class="cls-5" d="M564.62,429.58c-57.67-151.3-61-151.83-163.19-26.24,102.19-125.59,100.99-128.75-58.87-154.45,159.86,25.7,161.99,23.09,104.32-128.21,57.67,151.3,61,151.83,163.19,26.24-102.19,125.59-100.99,128.75,58.87,154.45-159.86-25.7-161.99-23.09-104.32,128.21Z"/>
            <path class="cls-5" d="M587.81,285.37c-57.67-151.3-61-151.83-163.19-26.24,102.19-125.59,100.99-128.75-58.87-154.45,159.86,25.7,161.99,23.09,104.32-128.21,57.67,151.3,61,151.83,163.19,26.24-102.19,125.59-100.99,128.75,58.87,154.45-159.86-25.7-161.99-23.09-104.32,128.21Z"/>
            <path class="cls-5" d="M611,141.15c-57.67-151.3-61-151.83-163.19-26.24,102.19-125.59,100.99-128.75-58.87-154.45,159.86,25.7,161.99,23.09,104.32-128.21,57.67,151.3,61,151.83,163.19,26.24C554.25-15.91,555.45-12.76,715.32,12.94c-159.86-25.7-161.99-23.09-104.32,128.21Z"/>
            <path class="cls-5" d="M608.13,954.38c-57.67-151.3-61-151.83-163.19-26.24,102.19-125.59,100.99-128.75-58.87-154.45,159.86,25.7,161.99,23.09,104.32-128.21,57.67,151.3,61,151.83,163.19,26.24-102.19,125.59-100.99,128.75,58.87,154.45-159.86-25.7-161.99-23.09-104.32,128.21Z"/>
            <path class="cls-5" d="M631.32,810.16c-57.67-151.3-61-151.83-163.19-26.24,102.19-125.59,100.99-128.75-58.87-154.45,159.86,25.7,161.99,23.09,104.32-128.21,57.67,151.3,61,151.83,163.19,26.24-102.19,125.59-100.99,128.75,58.87,154.45-159.86-25.7-161.99-23.09-104.32,128.21Z"/>
            <g class="cls-6">
              <path class="cls-5" d="M654.51,665.95c-57.67-151.3-61-151.83-163.19-26.24,102.19-125.59,100.99-128.75-58.87-154.45,159.86,25.7,161.99,23.09,104.32-128.21,57.67,151.3,61,151.83,163.19,26.24-102.19,125.59-100.99,128.75,58.87,154.45-159.86-25.7-161.99-23.09-104.32,128.21Z"/>
            </g>
            <g class="cls-8">
              <path class="cls-5" d="M677.69,521.73c-57.67-151.3-61-151.83-163.19-26.24,102.19-125.59,100.99-128.75-58.87-154.45,159.86,25.7,161.99,23.09,104.32-128.21,57.67,151.3,61,151.83,163.19,26.24-102.19,125.59-100.99,128.75,58.87,154.45-159.86-25.7-161.99-23.09-104.32,128.21Z"/>
            </g>
            <path class="cls-5" d="M700.88,377.52c-57.67-151.3-61-151.83-163.19-26.24,102.19-125.59,100.99-128.75-58.87-154.45,159.86,25.7,161.99,23.09,104.32-128.21,57.67,151.3,61,151.83,163.19,26.24-102.19,125.59-100.99,128.75,58.87,154.45-159.86-25.7-161.99-23.09-104.32,128.21Z"/>
            <g class="cls-7">
              <path class="cls-5" d="M724.07,233.3c-57.67-151.3-61-151.83-163.19-26.24,102.19-125.59,100.99-128.75-58.87-154.45,159.86,25.7,161.99,23.09,104.32-128.21,57.67,151.3,61,151.83,163.19,26.24-102.19,125.59-100.99,128.75,58.87,154.45-159.86-25.7-161.99-23.09-104.32,128.21Z"/>
            </g>
            <path class="cls-5" d="M747.26,89.09c-57.67-151.3-61-151.83-163.19-26.24,102.19-125.59,100.99-128.75-58.87-154.45,159.86,25.7,161.99,23.09,104.32-128.21,57.67,151.3,61,151.83,163.19,26.24-102.19,125.59-100.99,128.75,58.87,154.45-159.86-25.7-161.99-23.09-104.32,128.21Z"/>
            <g class="cls-6">
              <path class="cls-5" d="M721.18,1046.52c-57.67-151.3-61-151.83-163.19-26.24,102.19-125.59,100.99-128.75-58.87-154.45,159.86,25.7,161.99,23.09,104.32-128.21,57.67,151.3,61,151.83,163.19,26.24-102.19,125.59-100.99,128.75,58.87,154.45-159.86-25.7-161.99-23.09-104.32,128.21Z"/>
            </g>
            <g class="cls-7">
              <path class="cls-5" d="M744.37,902.31c-57.67-151.3-61-151.83-163.19-26.24,102.19-125.59,100.99-128.75-58.87-154.45,159.86,25.7,161.99,23.09,104.32-128.21,57.67,151.3,61,151.83,163.19,26.24-102.19,125.59-100.99,128.75,58.87,154.45-159.86-25.7-161.99-23.09-104.32,128.21Z"/>
            </g>
            <path class="cls-5" d="M767.56,758.09c-57.67-151.3-61-151.83-163.19-26.24,102.19-125.59,100.99-128.75-58.87-154.45,159.86,25.7,161.99,23.09,104.32-128.21,57.67,151.3,61,151.83,163.19,26.24-102.19,125.59-100.99,128.75,58.87,154.45-159.86-25.7-161.99-23.09-104.32,128.21Z"/>
            <path class="cls-5" d="M790.74,613.88c-57.67-151.3-61-151.83-163.19-26.24,102.19-125.59,100.99-128.75-58.87-154.45,159.86,25.7,161.99,23.09,104.32-128.21,57.67,151.3,61,151.83,163.19,26.24-102.19,125.59-100.99,128.75,58.87,154.45-159.86-25.7-161.99-23.09-104.32,128.21Z"/>
            <g class="cls-7">
              <path class="cls-5" d="M813.93,469.67c-57.67-151.3-61-151.83-163.19-26.24,102.19-125.59,100.99-128.75-58.87-154.45,159.86,25.7,161.99,23.09,104.32-128.21,57.67,151.3,61,151.83,163.19,26.24-102.19,125.59-100.99,128.75,58.87,154.45-159.86-25.7-161.99-23.09-104.32,128.21Z"/>
            </g>
            <path class="cls-5" d="M837.12,325.45c-57.67-151.3-61-151.83-163.19-26.24,102.19-125.59,100.99-128.75-58.87-154.45,159.86,25.7,161.99,23.09,104.32-128.21,57.67,151.3,61,151.83,163.19,26.24-102.19,125.59-100.99,128.75,58.87,154.45-159.86-25.7-161.99-23.09-104.32,128.21Z"/>
            <path class="cls-5" d="M860.31,181.24c-57.67-151.3-61-151.83-163.19-26.24C799.3,29.41,798.1,26.25,638.24.55c159.86,25.7,161.99,23.09,104.32-128.21,57.67,151.3,61,151.83,163.19,26.24-102.19,125.59-100.99,128.75,58.87,154.45-159.86-25.7-161.99-23.09-104.32,128.21Z"/>
            <path class="cls-5" d="M857.44,994.46c-57.67-151.3-61-151.83-163.19-26.24,102.19-125.59,100.99-128.75-58.87-154.45,159.86,25.7,161.99,23.09,104.32-128.21,57.67,151.3,61,151.83,163.19,26.24-102.19,125.59-100.99,128.75,58.87,154.45-159.86-25.7-161.99-23.09-104.32,128.21Z"/>
            <g class="cls-8">
              <path class="cls-5" d="M880.63,850.25c-57.67-151.3-61-151.83-163.19-26.24,102.19-125.59,100.99-128.75-58.87-154.45,159.86,25.7,161.99,23.09,104.32-128.21,57.67,151.3,61,151.83,163.19,26.24-102.19,125.59-100.99,128.75,58.87,154.45-159.86-25.7-161.99-23.09-104.32,128.21Z"/>
            </g>
            <path class="cls-5" d="M903.82,706.03c-57.67-151.3-61-151.83-163.19-26.24,102.19-125.59,100.99-128.75-58.87-154.45,159.86,25.7,161.99,23.09,104.32-128.21,57.67,151.3,61,151.83,163.19,26.24-102.19,125.59-100.99,128.75,58.87,154.45-159.86-25.7-161.99-23.09-104.32,128.21Z"/>
            <path class="cls-5" d="M927,561.82c-57.67-151.3-61-151.83-163.19-26.24,102.19-125.59,100.99-128.75-58.87-154.45,159.86,25.7,161.99,23.09,104.32-128.21,57.67,151.3,61,151.83,163.19,26.24-102.19,125.59-100.99,128.75,58.87,154.45-159.86-25.7-161.99-23.09-104.32,128.21Z"/>
            <path class="cls-5" d="M950.19,417.6c-57.67-151.3-61-151.83-163.19-26.24,102.19-125.59,100.99-128.75-58.87-154.45,159.86,25.7,161.99,23.09,104.32-128.21,57.67,151.3,61,151.83,163.19,26.24-102.19,125.59-100.99,128.75,58.87,154.45-159.86-25.7-161.99-23.09-104.32,128.21Z"/>
            <g class="cls-6">
              <path class="cls-5" d="M973.38,273.39c-57.67-151.3-61-151.83-163.19-26.24,102.19-125.59,100.99-128.75-58.87-154.45,159.86,25.7,161.99,23.09,104.32-128.21,57.67,151.3,61,151.83,163.19,26.24-102.19,125.59-100.99,128.75,58.87,154.45-159.86-25.7-161.99-23.09-104.32,128.21Z"/>
            </g>
            <path class="cls-5" d="M996.56,129.17c-57.67-151.3-61-151.83-163.19-26.24,102.19-125.59,100.99-128.75-58.87-154.45,159.86,25.7,161.99,23.09,104.32-128.21,57.67,151.3,61,151.83,163.19,26.24C939.82-27.89,941.02-24.74,1100.88.96c-159.86-25.7-161.99-23.09-104.32,128.21Z"/>
            <g class="cls-7">
              <path class="cls-5" d="M970.49,1086.61c-57.67-151.3-61-151.83-163.19-26.24,102.19-125.59,100.99-128.75-58.87-154.45,159.86,25.7,161.99,23.09,104.32-128.21,57.67,151.3,61,151.83,163.19,26.24-102.19,125.59-100.99,128.75,58.87,154.45-159.86-25.7-161.99-23.09-104.32,128.21Z"/>
            </g>
            <path class="cls-5" d="M993.68,942.39c-57.67-151.3-61-151.83-163.19-26.24,102.19-125.59,100.99-128.75-58.87-154.45,159.86,25.7,161.99,23.09,104.32-128.21,57.67,151.3,61,151.83,163.19,26.24-102.19,125.59-100.99,128.75,58.87,154.45-159.86-25.7-161.99-23.09-104.32,128.21Z"/>
            <path class="cls-5" d="M1016.87,798.18c-57.67-151.3-61-151.83-163.19-26.24,102.19-125.59,100.99-128.75-58.87-154.45,159.86,25.7,161.99,23.09,104.32-128.21,57.67,151.3,61,151.83,163.19,26.24-102.19,125.59-100.99,128.75,58.87,154.45-159.86-25.7-161.99-23.09-104.32,128.21Z"/>
            <g class="cls-7">
              <path class="cls-5" d="M1040.05,653.96c-57.67-151.3-61-151.83-163.19-26.24,102.19-125.59,100.99-128.75-58.87-154.45,159.86,25.7,161.99,23.09,104.32-128.21,57.67,151.3,61,151.83,163.19,26.24-102.19,125.59-100.99,128.75,58.87,154.45-159.86-25.7-161.99-23.09-104.32,128.21Z"/>
            </g>
            <g class="cls-8">
              <path class="cls-5" d="M1063.24,509.75c-57.67-151.3-61-151.83-163.19-26.24,102.19-125.59,100.99-128.75-58.87-154.45,159.86,25.7,161.99,23.09,104.32-128.21,57.67,151.3,61,151.83,163.19,26.24-102.19,125.59-100.99,128.75,58.87,154.45-159.86-25.7-161.99-23.09-104.32,128.21Z"/>
            </g>
            <g class="cls-7">
              <path class="cls-5" d="M1086.43,365.54c-57.67-151.3-61-151.83-163.19-26.24,102.19-125.59,100.99-128.75-58.87-154.45,159.86,25.7,161.99,23.09,104.32-128.21,57.67,151.3,61,151.83,163.19,26.24-102.19,125.59-100.99,128.75,58.87,154.45-159.86-25.7-161.99-23.09-104.32,128.21Z"/>
            </g>
            <path class="cls-5" d="M1109.61,221.32c-57.67-151.3-61-151.83-163.19-26.24,102.19-125.59,100.99-128.75-58.87-154.45,159.86,25.7,161.99,23.09,104.32-128.21,57.67,151.3,61,151.83,163.19,26.24-102.19,125.59-100.99,128.75,58.87,154.45-159.86-25.7-161.99-23.09-104.32,128.21Z"/>
            <path class="cls-5" d="M1106.75,1034.54c-57.67-151.3-61-151.83-163.19-26.24,102.19-125.59,100.99-128.75-58.87-154.45,159.86,25.7,161.99,23.09,104.32-128.21,57.67,151.3,61,151.83,163.19,26.24-102.19,125.59-100.99,128.75,58.87,154.45-159.86-25.7-161.99-23.09-104.32,128.21Z"/>
            <g class="cls-6">
              <path class="cls-5" d="M1129.94,890.33c-57.67-151.3-61-151.83-163.19-26.24,102.19-125.59,100.99-128.75-58.87-154.45,159.86,25.7,161.99,23.09,104.32-128.21,57.67,151.3,61,151.83,163.19,26.24-102.19,125.59-100.99,128.75,58.87,154.45-159.86-25.7-161.99-23.09-104.32,128.21Z"/>
            </g>
            <path class="cls-5" d="M1153.12,746.12c-57.67-151.3-61-151.83-163.19-26.24,102.19-125.59,100.99-128.75-58.87-154.45,159.86,25.7,161.99,23.09,104.32-128.21,57.67,151.3,61,151.83,163.19,26.24-102.19,125.59-100.99,128.75,58.87,154.45-159.86-25.7-161.99-23.09-104.32,128.21Z"/>
            <path class="cls-5" d="M1176.31,601.9c-57.67-151.3-61-151.83-163.19-26.24,102.19-125.59,100.99-128.75-58.87-154.45,159.86,25.7,161.99,23.09,104.32-128.21,57.67,151.3,61,151.83,163.19,26.24-102.19,125.59-100.99,128.75,58.87,154.45-159.86-25.7-161.99-23.09-104.32,128.21Z"/>
            <path class="cls-5" d="M1199.5,457.69c-57.67-151.3-61-151.83-163.19-26.24,102.19-125.59,100.99-128.75-58.87-154.45,159.86,25.7,161.99,23.09,104.32-128.21,57.67,151.3,61,151.83,163.19,26.24-102.19,125.59-100.99,128.75,58.87,154.45-159.86-25.7-161.99-23.09-104.32,128.21Z"/>
            <path class="cls-5" d="M1222.68,313.47c-57.67-151.3-61-151.83-163.19-26.24,102.19-125.59,100.99-128.75-58.87-154.45,159.86,25.7,161.99,23.09,104.32-128.21,57.67,151.3,61,151.83,163.19,26.24-102.19,125.59-100.99,128.75,58.87,154.45-159.86-25.7-161.99-23.09-104.32,128.21Z"/>
            <path class="cls-5" d="M1245.87,169.26c-57.67-151.3-61-151.83-163.19-26.24,102.19-125.59,100.99-128.75-58.87-154.45,159.86,25.7,161.99,23.09,104.32-128.21,57.67,151.3,61,151.83,163.19,26.24-102.19,125.59-100.99,128.75,58.87,154.45-159.86-25.7-161.99-23.09-104.32,128.21Z"/>
            <g class="cls-8">
              <path class="cls-5" d="M1219.8,1126.69c-57.67-151.3-61-151.83-163.19-26.24,102.19-125.59,100.99-128.75-58.87-154.45,159.86,25.7,161.99,23.09,104.32-128.21,57.67,151.3,61,151.83,163.19,26.24-102.19,125.59-100.99,128.75,58.87,154.45-159.86-25.7-161.99-23.09-104.32,128.21Z"/>
            </g>
            <g class="cls-7">
              <path class="cls-5" d="M1242.99,982.48c-57.67-151.3-61-151.83-163.19-26.24,102.19-125.59,100.99-128.75-58.87-154.45,159.86,25.7,161.99,23.09,104.32-128.21,57.67,151.3,61,151.83,163.19,26.24-102.19,125.59-100.99,128.75,58.87,154.45-159.86-25.7-161.99-23.09-104.32,128.21Z"/>
            </g>
            <path class="cls-5" d="M1266.17,838.26c-57.67-151.3-61-151.83-163.19-26.24,102.19-125.59,100.99-128.75-58.87-154.45,159.86,25.7,161.99,23.09,104.32-128.21,57.67,151.3,61,151.83,163.19,26.24-102.19,125.59-100.99,128.75,58.87,154.45-159.86-25.7-161.99-23.09-104.32,128.21Z"/>
            <g class="cls-8">
              <path class="cls-5" d="M1289.36,694.05c-57.67-151.3-61-151.83-163.19-26.24,102.19-125.59,100.99-128.75-58.87-154.45,159.86,25.7,161.99,23.09,104.32-128.21,57.67,151.3,61,151.83,163.19,26.24-102.19,125.59-100.99,128.75,58.87,154.45-159.86-25.7-161.99-23.09-104.32,128.21Z"/>
            </g>
            <g class="cls-6">
              <path class="cls-5" d="M1312.55,549.83c-57.67-151.3-61-151.83-163.19-26.24,102.19-125.59,100.99-128.75-58.87-154.45,159.86,25.7,161.99,23.09,104.32-128.21,57.67,151.3,61,151.83,163.19,26.24-102.19,125.59-100.99,128.75,58.87,154.45-159.86-25.7-161.99-23.09-104.32,128.21Z"/>
            </g>
            <g class="cls-8">
              <path class="cls-5" d="M1335.73,405.62c-57.67-151.3-61-151.83-163.19-26.24,102.19-125.59,100.99-128.75-58.87-154.45,159.86,25.7,161.99,23.09,104.32-128.21,57.67,151.3,61,151.83,163.19,26.24-102.19,125.59-100.99,128.75,58.87,154.45-159.86-25.7-161.99-23.09-104.32,128.21Z"/>
            </g>
            <path class="cls-5" d="M1358.92,261.41c-57.67-151.3-61-151.83-163.19-26.24,102.19-125.59,100.99-128.75-58.87-154.45,159.86,25.7,161.99,23.09,104.32-128.21,57.67,151.3,61,151.83,163.19,26.24-102.19,125.59-100.99,128.75,58.87,154.45-159.86-25.7-161.99-23.09-104.32,128.21Z"/>
            <path class="cls-5" d="M1356.06,1074.63c-57.67-151.3-61-151.83-163.19-26.24,102.19-125.59,100.99-128.75-58.87-154.45,159.86,25.7,161.99,23.09,104.32-128.21,57.67,151.3,61,151.83,163.19,26.24-102.19,125.59-100.99,128.75,58.87,154.45-159.86-25.7-161.99-23.09-104.32,128.21Z"/>
            <path class="cls-5" d="M1379.25,930.41c-57.67-151.3-61-151.83-163.19-26.24,102.19-125.59,100.99-128.75-58.87-154.45,159.86,25.7,161.99,23.09,104.32-128.21,57.67,151.3,61,151.83,163.19,26.24-102.19,125.59-100.99,128.75,58.87,154.45-159.86-25.7-161.99-23.09-104.32,128.21Z"/>
            <g class="cls-7">
              <path class="cls-5" d="M1402.43,786.2c-57.67-151.3-61-151.83-163.19-26.24,102.19-125.59,100.99-128.75-58.87-154.45,159.86,25.7,161.99,23.09,104.32-128.21,57.67,151.3,61,151.83,163.19,26.24-102.19,125.59-100.99,128.75,58.87,154.45-159.86-25.7-161.99-23.09-104.32,128.21Z"/>
            </g>
            <path class="cls-5" d="M1425.62,641.98c-57.67-151.3-61-151.83-163.19-26.24,102.19-125.59,100.99-128.75-58.87-154.45,159.86,25.7,161.99,23.09,104.32-128.21,57.67,151.3,61,151.83,163.19,26.24-102.19,125.59-100.99,128.75,58.87,154.45-159.86-25.7-161.99-23.09-104.32,128.21Z"/>
            <path class="cls-5" d="M1448.81,497.77c-57.67-151.3-61-151.83-163.19-26.24,102.19-125.59,100.99-128.75-58.87-154.45,159.86,25.7,161.99,23.09,104.32-128.21,57.67,151.3,61,151.83,163.19,26.24-102.19,125.59-100.99,128.75,58.87,154.45-159.86-25.7-161.99-23.09-104.32,128.21Z"/>
            <path class="cls-5" d="M1471.99,353.56c-57.67-151.3-61-151.83-163.19-26.24,102.19-125.59,100.99-128.75-58.87-154.45,159.86,25.7,161.99,23.09,104.32-128.21,57.67,151.3,61,151.83,163.19,26.24-102.19,125.59-100.99,128.75,58.87,154.45-159.86-25.7-161.99-23.09-104.32,128.21Z"/>
            <path class="cls-5" d="M1495.18,209.34c-57.67-151.3-61-151.83-163.19-26.24,102.19-125.59,100.99-128.75-58.87-154.45,159.86,25.7,161.99,23.09,104.32-128.21,57.67,151.3,61,151.83,163.19,26.24-102.19,125.59-100.99,128.75,58.87,154.45-159.86-25.7-161.99-23.09-104.32,128.21Z"/>
            <g class="cls-6">
              <path class="cls-5" d="M1469.11,1166.77c-57.67-151.3-61-151.83-163.19-26.24,102.19-125.59,100.99-128.75-58.87-154.45,159.86,25.7,161.99,23.09,104.32-128.21,57.67,151.3,61,151.83,163.19,26.24-102.19,125.59-100.99,128.75,58.87,154.45-159.86-25.7-161.99-23.09-104.32,128.21Z"/>
            </g>
            <g class="cls-7">
              <path class="cls-5" d="M1492.3,1022.56c-57.67-151.3-61-151.83-163.19-26.24,102.19-125.59,100.99-128.75-58.87-154.45,159.86,25.7,161.99,23.09,104.32-128.21,57.67,151.3,61,151.83,163.19,26.24-102.19,125.59-100.99,128.75,58.87,154.45-159.86-25.7-161.99-23.09-104.32,128.21Z"/>
            </g>
            <path class="cls-5" d="M1515.48,878.35c-57.67-151.3-61-151.83-163.19-26.24,102.19-125.59,100.99-128.75-58.87-154.45,159.86,25.7,161.99,23.09,104.32-128.21,57.67,151.3,61,151.83,163.19,26.24-102.19,125.59-100.99,128.75,58.87,154.45-159.86-25.7-161.99-23.09-104.32,128.21Z"/>
            <g class="cls-6">
              <path class="cls-5" d="M1538.67,734.13c-57.67-151.3-61-151.83-163.19-26.24,102.19-125.59,100.99-128.75-58.87-154.45,159.86,25.7,161.99,23.09,104.32-128.21,57.67,151.3,61,151.83,163.19,26.24-102.19,125.59-100.99,128.75,58.87,154.45-159.86-25.7-161.99-23.09-104.32,128.21Z"/>
            </g>
            <path class="cls-5" d="M1561.86,589.92c-57.67-151.3-61-151.83-163.19-26.24,102.19-125.59,100.99-128.75-58.87-154.45,159.86,25.7,161.99,23.09,104.32-128.21,57.67,151.3,61,151.83,163.19,26.24-102.19,125.59-100.99,128.75,58.87,154.45-159.86-25.7-161.99-23.09-104.32,128.21Z"/>
            <g class="cls-6">
              <path class="cls-5" d="M1585.04,445.7c-57.67-151.3-61-151.83-163.19-26.24,102.19-125.59,100.99-128.75-58.87-154.45,159.86,25.7,161.99,23.09,104.32-128.21,57.67,151.3,61,151.83,163.19,26.24-102.19,125.59-100.99,128.75,58.87,154.45-159.86-25.7-161.99-23.09-104.32,128.21Z"/>
            </g>
            <g class="cls-7">
              <path class="cls-5" d="M1608.23,301.49c-57.67-151.3-61-151.83-163.19-26.24,102.19-125.59,100.99-128.75-58.87-154.45,159.86,25.7,161.99,23.09,104.32-128.21,57.67,151.3,61,151.83,163.19,26.24-102.19,125.59-100.99,128.75,58.87,154.45-159.86-25.7-161.99-23.09-104.32,128.21Z"/>
            </g>
            <path class="cls-5" d="M1605.37,1114.71c-57.67-151.3-61-151.83-163.19-26.24,102.19-125.59,100.99-128.75-58.87-154.45,159.86,25.7,161.99,23.09,104.32-128.21,57.67,151.3,61,151.83,163.19,26.24-102.19,125.59-100.99,128.75,58.87,154.45-159.86-25.7-161.99-23.09-104.32,128.21Z"/>
            <path class="cls-5" d="M1628.55,970.5c-57.67-151.3-61-151.83-163.19-26.24,102.19-125.59,100.99-128.75-58.87-154.45,159.86,25.7,161.99,23.09,104.32-128.21,57.67,151.3,61,151.83,163.19,26.24-102.19,125.59-100.99,128.75,58.87,154.45-159.86-25.7-161.99-23.09-104.32,128.21Z"/>
            <path class="cls-5" d="M1651.74,826.28c-57.67-151.3-61-151.83-163.19-26.24,102.19-125.59,100.99-128.75-58.87-154.45,159.86,25.7,161.99,23.09,104.32-128.21,57.67,151.3,61,151.83,163.19,26.24-102.19,125.59-100.99,128.75,58.87,154.45-159.86-25.7-161.99-23.09-104.32,128.21Z"/>
            <path class="cls-5" d="M1674.93,682.07c-57.67-151.3-61-151.83-163.19-26.24,102.19-125.59,100.99-128.75-58.87-154.45,159.86,25.7,161.99,23.09,104.32-128.21,57.67,151.3,61,151.83,163.19,26.24-102.19,125.59-100.99,128.75,58.87,154.45-159.86-25.7-161.99-23.09-104.32,128.21Z"/>
            <path class="cls-5" d="M1698.11,537.85c-57.67-151.3-61-151.83-163.19-26.24,102.19-125.59,100.99-128.75-58.87-154.45,159.86,25.7,161.99,23.09,104.32-128.21,57.67,151.3,61,151.83,163.19,26.24-102.19,125.59-100.99,128.75,58.87,154.45-159.86-25.7-161.99-23.09-104.32,128.21Z"/>
            <path class="cls-5" d="M1721.3,393.64c-57.67-151.3-61-151.83-163.19-26.24,102.19-125.59,100.99-128.75-58.87-154.45,159.86,25.7,161.99,23.09,104.32-128.21,57.67,151.3,61,151.83,163.19,26.24-102.19,125.59-100.99,128.75,58.87,154.45-159.86-25.7-161.99-23.09-104.32,128.21Z"/>
            <path class="cls-5" d="M1744.49,249.43c-57.67-151.3-61-151.83-163.19-26.24,102.19-125.59,100.99-128.75-58.87-154.45,159.86,25.7,161.99,23.09,104.32-128.21,57.67,151.3,61,151.83,163.19,26.24-102.19,125.59-100.99,128.75,58.87,154.45-159.86-25.7-161.99-23.09-104.32,128.21Z"/>
          </g>
        </g>
      </g>
    </g>
  </g>
</svg>